<svg width="65%" height="100%" viewBox="0 0 534 107" fill="none" xmlns="http://www.w3.org/2000/svg">
<rect x="8.69043" y="10.833" width="81.7253" height="81.9586" rx="40.8626" fill="#6ED355" fill-opacity="0.25" stroke="#6ED355"/>
<rect x="25.373" y="0.5" width="23.0155" height="23.0832" rx="11.5077" fill="#1F4734" stroke="#6ED355"/>
<rect x="83.6963" y="52.1069" width="15.8036" height="15.851" rx="7.90179" fill="#6ED355" stroke="#6ED355"/>
<rect x="0.5" y="62.4282" width="42.9478" height="43.0718" rx="21.4739" fill="#326A3C" stroke="#6ED355"/>
<path d="M132 29.5C132 11.9316 142.906 0 159.81 0C172.713 0 182.126 7.4547 184.287 19.4745H176.626C174.376 11.4364 168.215 6.63394 159.476 6.63394C147.234 6.63394 139.409 16.0829 139.409 29.5C139.409 42.9171 146.9 52.3661 159.142 52.3661C168.133 52.3661 174.376 47.645 176.544 39.5255H184.205C182.038 51.5385 172.379 59 159.224 59C142.49 58.9932 132 47.2312 132 29.5Z" fill="#DDEAF2"/>
<path d="M227.993 34.9671V58.4979H221.163V35.3808C221.163 26.5966 216.917 21.957 209.589 21.957C201.682 21.957 196.768 27.0782 196.768 37.3683V58.4979H189.938V4.38855H196.768V24.4328C198.758 19.0877 203.598 15.7436 210.755 15.7436C220.25 15.7436 227.993 20.9666 227.993 34.9671Z" fill="#DDEAF2"/>
<path d="M275.045 52.2846V58.498H271.296C265.632 58.498 266.354 54.6519 266.273 50.5142C264.173 55.7847 256.73 58.9999 249.402 58.9999C240.078 58.9999 233.752 54.3602 233.752 46.6546C233.752 38.2027 239.662 33.4816 250.82 33.4816H263.308V30.5784C263.308 25.1112 259.395 21.7942 252.736 21.7942C246.744 21.7942 242.743 24.6093 241.911 28.9166H235.082C236.084 20.6275 242.825 15.7437 253.063 15.7437C263.887 15.7437 270.131 21.1295 270.131 30.9922V49.4696C270.131 51.708 270.962 52.2846 272.878 52.2846H275.045ZM263.308 39.1931H250.152C244.072 39.1931 240.657 41.4315 240.657 46.234C240.657 50.3785 244.236 53.1935 249.9 53.1935C258.393 53.1935 263.308 48.3029 263.308 41.2619V39.1931Z" fill="#DDEAF2"/>
<path d="M302.378 16.2388V22.8659H298.963C290.054 22.8659 286.721 30.2392 286.721 36.9546V58.4979H280.812V16.2388H286.721V24.5753C288.821 18.3416 292.883 16.2388 300.456 16.2388H302.371H302.378Z" fill="#DDEAF2"/>
<path d="M307.368 22.4521V4.38855H314.198V16.2387H325.186V22.4521H314.198V47.3938C314.198 50.955 315.445 52.2845 319.113 52.2845H325.854V58.4979H318.445C310.286 58.4979 307.368 54.9367 307.368 47.4752V22.4521Z" fill="#DDEAF2"/>
<path d="M373.792 37.3683C373.792 50.297 365.136 58.9931 353.391 58.9931C346.234 58.9931 342.015 56.7343 337.905 50.8329V58.4979H331.995V4.38855H337.905V23.0287C341.129 17.6157 346.234 15.7368 353.391 15.7368C365.129 15.7368 373.792 23.6053 373.792 37.3615V37.3683ZM366.799 37.3683C366.799 28.1703 361.134 21.7942 352.73 21.7942C344.326 21.7942 338.743 28.1771 338.743 37.2055C338.743 46.2339 344.407 52.9492 352.73 52.9492C361.053 52.9492 366.799 46.5663 366.799 37.3751V37.3683Z" fill="#DDEAF2"/>
<path d="M378.502 37.3684C378.502 24.5279 387.159 15.7437 399.564 15.7437C411.97 15.7437 420.626 24.5279 420.626 37.3684C420.626 50.2089 411.97 58.9931 399.564 58.9931C387.159 58.9931 378.502 50.2089 378.502 37.3684ZM413.64 37.3684C413.64 28.34 407.975 21.7942 399.571 21.7942C391.166 21.7942 385.502 28.34 385.502 37.3684C385.502 46.3968 391.166 52.9426 399.571 52.9426C407.975 52.9426 413.64 46.3968 413.64 37.3684Z" fill="#DDEAF2"/>
<path d="M425.479 37.3684C425.479 24.5279 434.136 15.7437 446.541 15.7437C458.947 15.7437 467.603 24.5279 467.603 37.3684C467.603 50.2089 458.947 58.9931 446.541 58.9931C434.136 58.9931 425.479 50.2089 425.479 37.3684ZM460.617 37.3684C460.617 28.34 454.952 21.7942 446.548 21.7942C438.144 21.7942 432.479 28.34 432.479 37.3684C432.479 46.3968 438.144 52.9426 446.548 52.9426C454.952 52.9426 460.617 46.3968 460.617 37.3684Z" fill="#DDEAF2"/>
<path d="M480.793 44.5788C481.045 49.5509 485.455 53.1935 492.53 53.1935C498.522 53.1935 502.768 50.6226 502.768 46.7291C502.768 41.4247 498.106 41.0109 491.781 40.2647C482.286 39.1048 474.713 37.1988 474.713 28.4146C474.713 20.7089 481.788 15.6554 491.365 15.7368C501.023 15.8182 508.017 20.2951 508.685 29.0793H501.691C501.194 24.772 497.193 21.5364 491.365 21.5364C485.537 21.5364 481.454 24.0191 481.454 27.9194C481.454 32.5591 485.953 33.1424 492.114 33.8818C501.773 35.0417 509.516 36.8664 509.516 46.2272C509.516 54.0956 501.937 58.9863 492.53 58.9863C481.543 58.9863 473.963 53.8514 473.799 44.5721H480.793V44.5788Z" fill="#DDEAF2"/>
<path d="M515.515 16.2387V4.38855H522.344V16.2387H533.332V22.4521H522.344V47.3938C522.344 50.955 523.592 52.2845 527.259 52.2845H534V58.4979H526.591C518.432 58.4979 515.515 54.9367 515.515 47.4752V16.2387Z" fill="#DDEAF2"/>
<path d="M146.84 106.36L142.6 80.24L137.56 100.6C136.88 103.32 136.76 104.76 138.16 105.84L138.12 106H131.88L131.92 105.84C133.8 104.76 134.36 103.36 135.04 100.64L139.84 81.08C140.64 77.84 140.68 76.76 139.4 75.84L139.44 75.72H146.24L150 99.8L165.4 75.72H172.28L172.24 75.84C170.52 76.84 170.04 77.8 169.24 81.08L164.4 100.64C163.76 103.36 163.6 104.76 164.88 105.84L164.84 106H156.92L156.96 105.84C158.84 104.76 159.4 103.36 160.08 100.64L165.24 79.88L148.08 106.36H146.84ZM178.829 106.68C173.949 106.68 171.029 103.68 171.029 98.8C171.029 91.68 176.789 85.76 183.789 85.76C189.549 85.76 192.109 89.76 190.909 95.28H175.509C175.229 96.32 175.109 97.4 175.109 98.48C175.109 102.04 176.669 104.12 180.069 104.12C183.669 104.12 186.389 101.64 187.869 98.48H190.109C188.149 103.04 184.349 106.68 178.829 106.68ZM176.109 93.4H187.349C187.949 90.04 186.709 87.56 183.349 87.56C180.069 87.56 177.469 90.08 176.109 93.4ZM206.701 106C206.981 105.32 207.661 102.96 208.141 101.08C206.261 104.28 203.421 106.36 199.981 106.36C196.261 106.36 193.941 103.68 193.941 99.32C193.941 92.2 199.301 85.76 205.461 85.76C208.301 85.76 210.141 87.4 210.941 89.68L213.341 80.12C213.781 78.28 214.021 76.36 212.981 75.52L213.021 75.36L218.781 74.68L219.021 74.84C218.701 75.2 218.221 77 217.461 80.12L212.341 100.68C211.701 103.32 211.501 104.76 212.661 105.84L212.621 106H206.701ZM198.181 99.56C198.181 102.24 199.181 104.08 201.781 104.08C205.381 104.08 208.261 100.44 209.461 95.64L210.461 91.76C210.061 89.52 208.341 87.92 206.021 87.92C201.581 87.92 198.181 93.84 198.181 99.56ZM216.61 106L216.65 105.84C218.29 104.76 218.85 103.4 219.53 100.68L221.77 91.72C222.45 88.96 222.73 87.68 221.53 86.68V86.56L227.21 86.2L227.25 86.28L223.69 100.68C223.01 103.36 222.81 104.76 224.01 105.84L223.97 106H216.61ZM224.33 81.52L225.45 77H229.45L228.33 81.52H224.33ZM233.633 106.56C230.793 106.56 228.753 105.08 228.753 102.2C228.753 97.52 233.793 96.12 238.113 94.88C241.913 93.84 244.193 93.24 244.593 90.48C244.913 88.56 243.873 87.56 241.793 87.56C239.193 87.56 236.473 89.16 235.513 92.84H231.753C233.233 88.12 237.913 85.72 242.433 85.72C246.393 85.72 249.433 87.44 248.153 92.56L246.073 101C245.513 103.28 245.873 104.12 247.113 104.12C247.873 104.12 248.513 103.84 249.153 103.32L248.753 104.88C247.513 105.84 246.273 106.32 244.833 106.32C242.673 106.32 241.153 104.92 241.993 101.36V101.32C240.193 104.32 237.273 106.56 233.633 106.56ZM232.913 101.68C232.913 103.36 233.953 103.96 235.313 103.96C238.713 103.96 242.113 100.68 243.353 95.8L243.753 94.16C242.913 95.28 241.313 95.72 238.753 96.56C235.473 97.6 232.913 98.76 232.913 101.68ZM257.575 106.36C254.575 106.36 252.455 104.56 253.655 99.68L256.455 88.36H252.535L253.015 86.44H256.935L258.175 81.36L262.815 78.28H263.055L261.015 86.44H267.255L266.775 88.36H260.535L257.735 99.6C256.935 102.88 257.975 103.68 259.615 103.68C261.495 103.68 263.055 102.52 264.415 100.72L264.535 102.4C262.775 104.88 260.255 106.36 257.575 106.36ZM266.197 106L266.237 105.84C267.877 104.76 268.437 103.4 269.117 100.68L271.357 91.72C272.037 88.96 272.317 87.68 271.117 86.68V86.56L276.797 86.2L276.837 86.28L273.277 100.68C272.597 103.36 272.397 104.76 273.597 105.84L273.557 106H266.197ZM273.917 81.52L275.037 77H279.037L277.917 81.52H273.917ZM287.54 106.68C282.5 106.68 279.54 103.72 279.54 99.04C279.54 91.84 285.54 85.76 292.74 85.76C297.74 85.76 300.66 88.64 300.66 93.36C300.66 100.56 294.7 106.68 287.54 106.68ZM283.54 99.68C283.54 103 285.14 104.8 287.94 104.8C292.62 104.8 296.66 98.88 296.66 92.76C296.66 89.4 295.06 87.64 292.3 87.64C287.54 87.64 283.54 93.52 283.54 99.68ZM301.821 106L301.861 105.84C303.501 104.76 304.101 103.36 304.781 100.68L306.981 91.76C307.781 88.56 307.901 87.48 306.701 86.56V86.44H313.061C312.421 87.4 311.941 88.56 311.421 90.6C313.141 87.88 316.061 85.76 319.421 85.76C322.981 85.76 325.421 87.84 324.141 93.08L322.261 100.68C321.621 103.32 321.421 104.76 322.541 105.84L322.501 106H315.381L315.421 105.84C316.941 104.76 317.501 103.4 318.141 100.68L319.941 93.4C320.821 89.76 319.901 88.28 317.341 88.28C314.461 88.28 311.781 90.48 310.581 93.84L308.901 100.68C308.261 103.32 308.021 104.76 309.181 105.84L309.141 106H301.821Z" fill="#9FC3E9"/>
</svg>
